<?xml version="1.0"?>
<svg width="50" height="50" xmlns="http://www.w3.org/2000/svg" xmlns:svg="http://www.w3.org/2000/svg">
 <g class="layer">
  <title>Layer 1</title>
  <path d="m13,4c-4.96,0 -9,4.04 -9,9l0,24c0,4.96 4.04,9 9,9l24,0c0.34,0 0.67,-0.02 1,-0.06l0,-41.88c-0.33,-0.04 -0.66,-0.06 -1,-0.06l-24,0zm27,0.53l0,9.47l6,0l0,-1c0,-3.91 -2.51,-7.24 -6,-8.47zm-18,7.47c7.17,0 13,5.83 13,13c0,7.17 -5.83,13 -13,13c-7.17,0 -13,-5.83 -13,-13c0,-7.17 5.83,-13 13,-13zm0,2c-6.06,0 -11,4.93 -11,11c0,2.81 1.07,5.38 2.82,7.32c2.07,-2.09 5.03,-3.32 8.18,-3.32c3.14,0 6.11,1.22 8.19,3.32c1.74,-1.95 2.81,-4.51 2.81,-7.32c0,-6.07 -4.93,-11 -11,-11zm18,2l0,8l6,0l0,-8l-6,0zm-18,2.5c2.48,0 4.5,2.02 4.5,4.5c0,2.48 -2.02,4.5 -4.5,4.5c-2.48,0 -4.5,-2.02 -4.5,-4.5c0,-2.48 2.02,-4.5 4.5,-4.5zm18,7.5l0,8l6,0l0,-8l-6,0zm0,10l0,9.47c3.49,-1.23 6,-4.56 6,-8.47l0,-1l-6,0z" fill="#ffffff" id="svg_1"/>
 </g>
</svg>