<?xml version="1.0"?>
<svg width="128" height="128" xmlns="http://www.w3.org/2000/svg" xmlns:svg="http://www.w3.org/2000/svg" data-name="Livello 1">
 <title/>
 <g class="layer">
  <title>Layer 1</title>
  <path d="m64,0a64,64 0 1 0 64,64a64.07,64.07 0 0 0 -64,-64zm0,122a58,58 0 1 1 58,-58a58.07,58.07 0 0 1 -58,58z" fill="#ffffff" id="svg_1" transform="matrix(1 0 0 1 0 0)"/>
  <path d="m92.12,35.79a3,3 0 0 0 -4.24,0l-23.88,23.96l-23.87,-24a3,3 0 0 0 -4.25,4.25l23.88,24l-23.88,24a3,3 0 0 0 4.25,4.24l23.87,-23.99l23.88,24a3,3 0 0 0 4.25,-4.25l-23.89,-24l23.89,-24a3,3 0 0 0 -0.01,-4.21z" fill="#ffffff" id="svg_2"/>
 </g>
</svg>