<?xml version="1.0"?>
<svg width="128" height="128" xmlns="http://www.w3.org/2000/svg" xmlns:svg="http://www.w3.org/2000/svg" enable-background="new 0 0 128 128" version="1.1" xml:space="preserve">
 <style type="text/css">.st0{fill:#4D4D4D;}
	.st1{fill:#FFFFFF;}</style>
 <g class="layer">
  <title>Layer 1</title>
  <circle class="st0" cx="64" cy="64" fill="#ffffff" id="svg_1" opacity="0" r="64"/>
  <path class="st1" d="m103,57l-9.1,0c-0.5,0 -0.8,-0.3 -1,-0.7c-0.7,-2.6 -1.7,-5 -3,-7.3c-0.2,-0.4 -0.2,-0.9 0.1,-1.2l6.4,-6.4c0.4,-0.4 0.4,-1 0,-1.4l-8.4,-8.5c-0.4,-0.4 -1,-0.4 -1.4,0l-6.4,6.4c-0.3,0.3 -0.8,0.4 -1.2,0.2c-2.3,-1.3 -4.7,-2.3 -7.3,-3c-0.4,-0.1 -0.7,-0.5 -0.7,-1l0,-9.1c0,-0.6 -0.4,-1 -1,-1l-12,0c-0.6,0 -1,0.4 -1,1l0,9.1c0,0.5 -0.3,0.8 -0.7,1c-2.6,0.7 -5,1.7 -7.3,3c-0.4,0.2 -0.9,0.2 -1.2,-0.1c-1.4,-1.4 -4.9,-4.9 -6.4,-6.4c-0.4,-0.4 -1,-0.4 -1.4,0l-8.5,8.4c-0.4,0.4 -0.4,1 0,1.4l6.4,6.4c0.3,0.3 0.4,0.8 0.2,1.2c-1.3,2.3 -2.3,4.7 -3,7.3c-0.1,0.4 -0.5,0.7 -1,0.7l-9.1,0c-0.6,0 -1,0.4 -1,1l0,12c0,0.6 0.4,1 1,1l9.1,0c0.5,0 0.8,0.3 1,0.7c0.7,2.6 1.7,5 3,7.3c0.2,0.4 0.2,0.9 -0.1,1.2c-1.4,1.4 -4.9,4.9 -6.4,6.4c-0.4,0.4 -0.4,1 0,1.4l8.5,8.5c0.4,0.4 1,0.4 1.4,0l6.4,-6.4c0.3,-0.3 0.8,-0.4 1.2,-0.2c2.3,1.3 4.7,2.3 7.3,3c0.4,0.1 0.6,0.6 0.6,1.1l0,9c0,0.6 0.5,1 1.1,1l12,0c0.6,0 0.9,-0.4 0.9,-1l0,-9c0,-0.5 0.4,-0.9 0.8,-1.1c2.6,-0.7 5,-1.7 7.3,-3c0.4,-0.2 0.9,-0.2 1.2,0.1c1.4,1.4 4.9,4.9 6.4,6.4c0.4,0.4 1,0.4 1.4,0l8.5,-8.5c0.4,-0.4 0.4,-1 0,-1.4l-6.4,-6.4c-0.3,-0.3 -0.4,-0.8 -0.2,-1.2c1.3,-2.3 2.3,-4.6 3,-7.2c0.1,-0.4 0.5,-0.7 1,-0.7l9.1,0c0.5,0.1 0.9,-0.4 0.9,-1l0,-12c0,-0.6 -0.4,-1 -1,-1zm-39,25c-9.9,0 -18,-8.1 -18,-18s8.1,-18 18,-18s18,8.1 18,18s-8.1,18 -18,18z" fill="#ffffff" id="svg_2"/>
 </g>
</svg>