<?xml version="1.0"?>
<svg width="128" height="128" xmlns="http://www.w3.org/2000/svg" xmlns:svg="http://www.w3.org/2000/svg" enable-background="new 0 0 128 128" version="1.1" xml:space="preserve">
 <g class="layer">
  <title>Layer 1</title>
  <g id="svg_1">
   <path d="m126,78.5l0,-29l-12,0c-1.1,-3.7 -2.5,-7.2 -4.4,-10.6l8.5,-8.5l-20.5,-20.5l-8.5,8.5c-3.4,-1.9 -6.9,-3.3 -10.6,-4.4l0,-12l-29,0l0,12c-3.7,1.1 -7.2,2.5 -10.6,4.4l-8.5,-8.5l-20.5,20.5l8.5,8.5c-1.9,3.4 -3.3,6.9 -4.4,10.6l-12,0l0,29l12,0c1.1,3.7 2.5,7.2 4.4,10.6l-8.5,8.5l20.5,20.5l8.5,-8.5c3.4,1.9 6.9,3.3 10.6,4.4l0,12l29,0l0,-12c3.7,-1.1 7.2,-2.5 10.6,-4.4l8.5,8.5l20.5,-20.5l-8.5,-8.5c1.9,-3.4 3.3,-6.9 4.4,-10.6l12,0zm-15.5,-2.5c-1.1,4.3 -2.8,8.5 -5.1,12.4l-0.8,1.3l7.9,7.9l-14.8,14.8l-7.9,-7.9l-1.3,0.8c-3.9,2.3 -8.1,4 -12.4,5.1l-1.5,0.4l0,11.2l-21,0l0,-11.1l-1.5,-0.4c-4.3,-1.1 -8.5,-2.8 -12.4,-5.1l-1.3,-0.8l-7.9,7.9l-14.9,-14.9l7.9,-7.9l-0.8,-1.3c-2.3,-3.9 -4,-8.1 -5.1,-12.4l-0.4,-1.5l-11.2,0l0,-21l11.1,0l0.4,-1.5c1.1,-4.3 2.8,-8.5 5.1,-12.4l0.8,-1.3l-7.9,-7.9l14.8,-14.8l7.9,7.9l1.3,-0.8c3.9,-2.3 8.1,-4 12.4,-5.1l1.5,-0.4l0,-11.2l21,0l0,11.1l1.5,0.4c4.3,1.1 8.5,2.8 12.4,5.1l1.3,0.8l7.9,-7.9l14.8,14.8l-7.9,7.9l0.8,1.3c2.3,3.9 4,8.1 5.1,12.4l0.4,1.5l11.3,0l0,21l-11.1,0l-0.4,1.6z" fill="#000000" id="svg_2"/>
   <path d="m64,32c-17.6,0 -32,14.4 -32,32s14.4,32 32,32s32,-14.4 32,-32s-14.4,-32 -32,-32zm0,60c-15.4,0 -28,-12.6 -28,-28s12.6,-28 28,-28s28,12.6 28,28s-12.6,28 -28,28z" fill="#000000" id="svg_3"/>
  </g>
 </g>
</svg>