<?xml version="1.0"?>
<svg width="460.298" height="460.297" xmlns="http://www.w3.org/2000/svg" xmlns:svg="http://www.w3.org/2000/svg" enable-background="new 0 0 460.298 460.297" version="1.1" xml:space="preserve">
 <g class="layer">
  <title>Layer 1</title>
  <g id="svg_1">
   <g id="svg_2">
    <path d="m230.15,120.94l-164.16,135.33c0,0.19 -0.05,0.48 -0.15,0.86c-0.09,0.38 -0.14,0.66 -0.14,0.85l0,137.04c0,4.95 1.81,9.24 5.42,12.85c3.62,3.61 7.9,5.43 12.85,5.43l109.63,0l0,-109.64l73.1,0l0,109.64l109.63,0c4.94,0 9.23,-1.81 12.84,-5.43c3.62,-3.61 5.44,-7.9 5.44,-12.85l0,-137.04c0,-0.76 -0.11,-1.33 -0.29,-1.71l-164.17,-135.33z" fill="#ffffff" id="svg_3"/>
    <path d="m457.12,225.44l-62.52,-51.96l0,-116.49c0,-2.66 -0.86,-4.85 -2.57,-6.57c-1.71,-1.71 -3.9,-2.57 -6.57,-2.57l-54.81,0c-2.67,0 -4.86,0.86 -6.57,2.57c-1.71,1.72 -2.57,3.91 -2.57,6.57l0,55.67l-69.66,-58.24c-6.08,-4.95 -13.32,-7.43 -21.69,-7.43c-8.38,0 -15.61,2.48 -21.7,7.43l-205.29,171.02c-1.9,1.52 -2.94,3.56 -3.14,6.13c-0.19,2.57 0.47,4.81 2,6.72l17.7,21.12c1.52,1.72 3.52,2.76 6,3.15c2.28,0.19 4.57,-0.48 6.85,-2l197.57,-164.74l197.57,164.74c1.53,1.33 3.52,1.99 5.99,1.99l0.86,0c2.47,-0.38 4.47,-1.43 6,-3.14l17.7,-21.12c1.52,-1.91 2.19,-4.15 1.99,-6.72c-0.19,-2.56 -1.24,-4.61 -3.14,-6.13z" fill="#ffffff" id="svg_4"/>
   </g>
  </g>
  <g id="svg_5"/>
  <g id="svg_6"/>
  <g id="svg_7"/>
  <g id="svg_8"/>
  <g id="svg_9"/>
  <g id="svg_10"/>
  <g id="svg_11"/>
  <g id="svg_12"/>
  <g id="svg_13"/>
  <g id="svg_14"/>
  <g id="svg_15"/>
  <g id="svg_16"/>
  <g id="svg_17"/>
  <g id="svg_18"/>
  <g id="svg_19"/>
 </g>
</svg>