<?xml version="1.0"?>
<svg width="6.3499999" height="6.3500002" xmlns="http://www.w3.org/2000/svg" xmlns:svg="http://www.w3.org/2000/svg" version="1.1">

 <g class="layer">
  <title>Layer 1</title>
  <g id="layer1">
   <path clip-rule="nonzero" d="m3.18,0.53c-0.73,0 -1.33,0.59 -1.33,1.32c0,0.73 0.6,1.33 1.33,1.33c0.72,0 1.32,-0.6 1.32,-1.33c0,-0.73 -0.6,-1.32 -1.32,-1.32zm-1.06,2.91c-0.8,0 -1.59,0.53 -1.59,1.32l0,0.59c0.05,0.33 0.26,0.47 0.53,0.47l4.23,0c0.27,0 0.44,-0.22 0.53,-0.47l0,-0.59c0,-1.06 -0.79,-1.32 -1.59,-1.32l-2.11,0z" display="inline" enable-background="accumulate" fill="#ffffff" fill-rule="nonzero" id="path1826" stroke-dashoffset="0" stroke-linecap="round" stroke-linejoin="round" stroke-miterlimit="4" stroke-width="0.53"/>
  </g>
 </g>
</svg>