<?xml version="1.0" encoding="iso-8859-1"?>
<!-- Generator: Adobe Illustrator 16.0.0, SVG Export Plug-In . SVG Version: 6.00 Build 0)  -->
<!DOCTYPE svg PUBLIC "-//W3C//DTD SVG 1.1//EN" "http://www.w3.org/Graphics/SVG/1.1/DTD/svg11.dtd">
<svg version="1.1" id="Capa_1" xmlns="http://www.w3.org/2000/svg" xmlns:xlink="http://www.w3.org/1999/xlink" x="0px" y="0px"
	 width="64px" height="64px" viewBox="0 0 64 64" style="enable-background:new 0 0 64 64;" xml:space="preserve">
<g>
	<g>
		<g id="circle_20_">
			<g>
				<path d="M44,26H29v-3h-9v5h24V26z M22,41h20l4-11H18L22,41z M32,0C14.327,0,0,14.327,0,32c0,17.674,14.327,32,32,32
					s32-14.326,32-32C64,14.327,49.673,0,32,0z M44,41c0,1.104-0.896,2-2,2H22c-1.104,0-2-0.896-2-2l-4-11c0-1.104,0.896-2,2-2v-5
					c0-1.104,0.896-2,2-2h9c1.104,0,2,0.896,2,2v1h13c1.104,0,2,0.896,2,2v2c1.104,0,2,0.896,2,2L44,41z"/>
			</g>
		</g>
	</g>
</g>
<g>
</g>
<g>
</g>
<g>
</g>
<g>
</g>
<g>
</g>
<g>
</g>
<g>
</g>
<g>
</g>
<g>
</g>
<g>
</g>
<g>
</g>
<g>
</g>
<g>
</g>
<g>
</g>
<g>
</g>
</svg>
