<?xml version="1.0"?>
<svg width="64" height="64" xmlns="http://www.w3.org/2000/svg" xmlns:svg="http://www.w3.org/2000/svg" enable-background="new 0 0 64 64" version="1.1" xml:space="preserve">
 <g class="layer">
  <title>Layer 1</title>
  <g id="svg_1">
   <g id="svg_2">
    <g id="circle_20_">
     <g id="svg_3">
      <path d="m44,26l-15,0l0,-3l-9,0l0,5l24,0l0,-2zm-22,15l20,0l4,-11l-28,0l4,11zm10,-41c-17.67,0 -32,14.33 -32,32c0,17.67 14.33,32 32,32s32,-14.33 32,-32c0,-17.67 -14.33,-32 -32,-32zm12,41c0,1.1 -0.9,2 -2,2l-20,0c-1.1,0 -2,-0.9 -2,-2l-4,-11c0,-1.1 0.9,-2 2,-2l0,-5c0,-1.1 0.9,-2 2,-2l9,0c1.1,0 2,0.9 2,2l0,1l13,0c1.1,0 2,0.9 2,2l0,2c1.1,0 2,0.9 2,2l-4,11z" fill="#ffffff" id="svg_4"/>
     </g>
    </g>
   </g>
  </g>
  <g id="svg_5"/>
  <g id="svg_6"/>
  <g id="svg_7"/>
  <g id="svg_8"/>
  <g id="svg_9"/>
  <g id="svg_10"/>
  <g id="svg_11"/>
  <g id="svg_12"/>
  <g id="svg_13"/>
  <g id="svg_14"/>
  <g id="svg_15"/>
  <g id="svg_16"/>
  <g id="svg_17"/>
  <g id="svg_18"/>
  <g id="svg_19"/>
 </g>
</svg>