<?xml version="1.0"?>
<svg width="64" height="64" xmlns="http://www.w3.org/2000/svg" xmlns:svg="http://www.w3.org/2000/svg" enable-background="new 0 0 64 64" version="1.1">
 <g class="layer">
  <title>Layer 1</title>
  <g id="svg_1">
   <g fill="#1D1D1B" id="svg_2">
    <path d="m33.17,20.01c-0.2,-0.2 -0.48,-0.37 -0.74,-0.47c-0.74,-0.27 -1.56,-0.1 -2.12,0.46l-15.88,15.88c-0.78,0.78 -0.78,2.05 0,2.83s2.05,0.78 2.83,0l14.47,-14.48l14.49,14.49c0.39,0.39 0.9,0.58 1.41,0.58s1.03,-0.19 1.42,-0.58c0.78,-0.78 0.78,-2.05 0,-2.83l-15.88,-15.88z" fill="#ffffff" id="svg_3"/>
    <path d="m32,0c-17.64,0 -32,14.36 -32,32s14.36,32 32,32s32,-14.36 32,-32s-14.35,-32 -32,-32zm0,60c-15.44,0 -28,-12.56 -28,-28s12.56,-28 28,-28s28,12.56 28,28s-12.56,28 -28,28z" fill="#ffffff" id="svg_4"/>
   </g>
  </g>
 </g>
</svg>